<svg xmlns="http://www.w3.org/2000/svg" width="430" height="860" viewBox="0 0 430 860"><style>text{font-family:Arial,sans-serif}.t{fill:#f5f7f6}.m{fill:#9baaa2}.g{fill:#9cff2e}.card{fill:#1b2420;stroke:#344139;stroke-width:1.5}.input{fill:#171d1a;stroke:#344139;stroke-width:1.5}</style><rect width="430" height="860" fill="#0e1210"/><rect width="430" height="74" fill="#171d1a"/><path d="M25 37h26M25 37l12-12M25 37l12 12" fill="none" stroke="#f5f7f6" stroke-width="4" stroke-linecap="round"/><text x="215" y="47" text-anchor="middle" class="t" font-size="20" font-weight="700">Meu carrinho</text><rect x="28" y="112" width="92" height="92" rx="16" fill="#2a352f"/><path d="M51 160h46M59 146v28M89 146v28" stroke="#9cff2e" stroke-width="7" stroke-linecap="round"/><text x="136" y="141" class="t" font-size="16" font-weight="700">Whey Protein</text><text x="136" y="165" class="m" font-size="13">900g • Chocolate</text><text x="136" y="198" class="g" font-size="18" font-weight="800">R$ 149,90</text><rect x="290" y="151" width="104" height="44" rx="12" class="card"/><text x="312" y="180" class="g" font-size="19">−</text><text x="342" y="180" class="t" font-size="15">1</text><text x="372" y="180" class="g" font-size="19">+</text><line x1="28" y1="234" x2="402" y2="234" stroke="#344139"/><text x="28" y="290" class="t" font-size="19" font-weight="700">Resumo do pedido</text><text x="28" y="334" class="m" font-size="15">Subtotal</text><text x="402" y="334" text-anchor="end" class="t" font-size="15">R$ 149,90</text><text x="28" y="370" class="m" font-size="15">Entrega</text><text x="402" y="370" text-anchor="end" class="g" font-size="15">Grátis</text><line x1="28" y1="405" x2="402" y2="405" stroke="#344139"/><text x="28" y="450" class="t" font-size="18" font-weight="700">Total</text><text x="402" y="450" text-anchor="end" class="g" font-size="24" font-weight="800">R$ 149,90</text><rect x="38" y="520" width="354" height="52" rx="14" fill="#9cff2e" stroke="#9cff2e"/><text x="215" y="553" text-anchor="middle" fill="#111614" font-size="15" font-weight="700">Ir para pagamento</text><rect x="38" y="591" width="354" height="52" rx="14" fill="#171d1a" stroke="#46544d"/><text x="215" y="624" text-anchor="middle" fill="#f5f7f6" font-size="15" font-weight="700">Continuar comprando</text><rect x="0" y="792" width="430" height="68" fill="#171d1a"/><g font-size="11" text-anchor="middle"><text x="54" y="837" class="m">Início</text><text x="161" y="837" class="g">Carrinho</text><text x="269" y="837" class="m">Pedidos</text><text x="376" y="837" class="m">Perfil</text></g><g fill="#78877f"><circle cx="54" cy="810" r="8"/></g><rect x="153" y="803" width="16" height="13" rx="3" fill="#9cff2e"/><rect x="260" y="802" width="18" height="16" rx="3" fill="#78877f"/><circle cx="376" cy="810" r="9" fill="#78877f"/></svg>