<svg xmlns="http://www.w3.org/2000/svg" width="430" height="860" viewBox="0 0 430 860"><style>text{font-family:Arial,sans-serif}.t{fill:#f5f7f6}.m{fill:#9baaa2}.g{fill:#9cff2e}.card{fill:#1b2420;stroke:#344139;stroke-width:1.5}.input{fill:#171d1a;stroke:#344139;stroke-width:1.5}</style><rect width="430" height="860" fill="#0e1210"/><rect width="430" height="74" fill="#171d1a"/><path d="M25 37h26M25 37l12-12M25 37l12 12" fill="none" stroke="#f5f7f6" stroke-width="4" stroke-linecap="round"/><text x="215" y="47" text-anchor="middle" class="t" font-size="20" font-weight="700">Cadastrar produto</text><text x="38" y="116" class="t" font-size="23" font-weight="700">Novo produto</text><text x="38" y="142" class="m" font-size="13">Adicione as informações do item</text><rect x="38" y="174" width="354" height="132" rx="20" fill="#1b2420" stroke="#44534b" stroke-dasharray="7 6"/><text x="215" y="230" text-anchor="middle" class="g" font-size="32">＋</text><text x="215" y="268" text-anchor="middle" class="m" font-size="14">Adicionar foto do produto</text><text x="38" y="341" class="m" font-size="13">Nome do produto *</text><rect x="38" y="351" width="354" height="48" rx="12" class="input"/><text x="52" y="381" fill="#66746d" font-size="14">Ex.: Whey Protein</text><text x="38" y="432" class="m" font-size="13">Categoria *</text><rect x="38" y="442" width="354" height="48" rx="12" class="input"/><text x="52" y="472" fill="#66746d" font-size="14">Selecione a categoria</text><text x="38" y="523" class="m" font-size="13">Preço *</text><rect x="38" y="533" width="168" height="48" rx="12" class="input"/><text x="52" y="563" fill="#66746d" font-size="14">R$ 0,00</text><text x="224" y="523" class="m" font-size="13">Estoque *</text><rect x="224" y="533" width="168" height="48" rx="12" class="input"/><text x="238" y="563" fill="#66746d" font-size="14">0</text><text x="38" y="614" class="m" font-size="13">Descrição *</text><rect x="38" y="624" width="354" height="48" rx="12" class="input"/><text x="52" y="654" fill="#66746d" font-size="14">Informações do produto</text><rect x="38" y="725" width="354" height="52" rx="14" fill="#9cff2e" stroke="#9cff2e"/><text x="215" y="758" text-anchor="middle" fill="#111614" font-size="15" font-weight="700">Salvar produto</text></svg>